<?xml version="1.0" encoding="iso-8859-1"?>
<!-- Uploaded to: SVG Repo, www.svgrepo.com, Generator: SVG Repo Mixer Tools -->
<!DOCTYPE svg PUBLIC "-//W3C//DTD SVG 1.1//EN" "http://www.w3.org/Graphics/SVG/1.1/DTD/svg11.dtd">
<svg fill="#000000" height="800px" width="800px" version="1.1" id="Capa_1" xmlns="http://www.w3.org/2000/svg" xmlns:xlink="http://www.w3.org/1999/xlink" 
	 viewBox="0 0 443.576 443.576" xml:space="preserve">
<path d="M338.495,271.649c25.104-38.583,37.826-77.926,37.826-117.118C376.32,69.322,306.998,0,221.788,0
	S67.256,69.322,67.256,154.531c0,39.192,12.721,78.535,37.826,117.118c-3.413,0.467-6.043,3.386-6.043,6.927c0,3.866,3.134,7,7,7
	h8.695l66.361,89.979v49.021c0,10.477,8.523,19,19,19h43.387c10.476,0,19-8.523,19-19v-49.032l66.353-89.968h8.704
	c3.866,0,7-3.134,7-7C344.538,275.035,341.907,272.116,338.495,271.649z M152.026,312.554c0.257,0.007,0.513,0.02,0.771,0.02
	c9.222,0,17.481-4.186,22.988-10.753c0.568,0.677,1.163,1.335,1.795,1.967c5.665,5.665,13.197,8.785,21.208,8.785h0.002
	c5.878,0,11.362-1.706,15.996-4.64v58.32H191.63L152.026,312.554z M185.892,38.339c8.965,4.51,18.732,7.294,28.896,8.171v225.066
	h-36.438c-28.277-40.546-42.617-81.771-42.617-122.581C135.733,105.867,154.548,65.817,185.892,38.339z M307.843,148.995
	c0,40.811-14.341,82.034-42.617,122.581h-36.437V46.511c10.164-0.876,19.931-3.66,28.896-8.17
	C289.028,65.819,307.843,105.869,307.843,148.995z M260.49,285.576c-1.409,7.39-7.91,12.996-15.704,12.996
	c-7.795,0-14.296-5.607-15.706-12.996H260.49z M214.496,285.576c-1.409,7.39-7.91,12.996-15.705,12.996
	c-4.273,0-8.29-1.663-11.311-4.685c-2.301-2.302-3.809-5.182-4.399-8.311H214.496z M137.094,285.576h31.41
	c-1.409,7.391-7.911,12.997-15.706,12.997C145.003,298.573,138.503,292.967,137.094,285.576z M251.937,366.253h-23.149v-58.321
	c4.634,2.935,10.119,4.641,15.998,4.641c9.226,0,17.489-4.189,22.996-10.763c5.507,6.573,13.77,10.763,22.996,10.763
	c0.256,0,0.509-0.013,0.763-0.02L251.937,366.253z M275.074,285.576h31.408c-1.409,7.39-7.91,12.996-15.704,12.996
	C282.984,298.572,276.483,292.966,275.074,285.576z M362.32,154.531c0,38.962-13.671,78.322-40.646,117.045h-39.561
	c26.366-40.384,39.729-81.564,39.729-122.581c0-45.773-19.349-88.388-51.788-118.366c2.252-1.709,4.422-3.552,6.509-5.513
	C326.917,46.509,362.32,96.463,362.32,154.531z M167.014,25.116c2.086,1.961,4.255,3.803,6.507,5.512
	c-32.439,29.979-51.788,72.593-51.788,118.367c0,41.018,13.363,82.197,39.73,122.581h-39.561
	c-26.975-38.723-40.646-78.083-40.646-117.045C81.256,96.463,116.659,46.509,167.014,25.116z M243.482,429.576h-43.387
	c-2.757,0-5-2.243-5-5v-37.165l53.387,14.83v22.335C248.482,427.333,246.238,429.576,243.482,429.576z"/>
</svg>